<svg width="36" height="36" viewBox="0 0 36 36" fill="none" xmlns="http://www.w3.org/2000/svg">
<path d="M0.000918716 7.54036C0.169008 7.09212 0.159822 6.6099 0.262697 6.14788C0.903823 3.26189 2.72617 1.53324 5.64155 1.08133C5.94466 1.03449 6.20092 1.01979 6.29278 0.607374C6.3681 0.267522 6.70152 0.0525884 7.07627 0.0332995C7.99112 -0.0126265 8.9078 -0.00895139 9.82265 0.0314635C10.2103 0.0479968 10.5097 0.270279 10.6346 0.625746C10.7228 0.876501 10.8624 0.881094 11.0654 0.881094C14.3987 0.878338 17.7311 0.869153 21.0644 0.882012C23.5417 0.892116 25.6166 2.5381 26.2155 4.93176C26.9521 7.87562 24.8065 10.9765 21.7965 11.3247C21.4318 11.3669 21.0672 11.389 20.6998 11.3834C20.5886 11.3816 20.4738 11.355 20.449 11.5286C20.3608 12.1412 20.2635 12.7539 20.3746 13.372C20.4361 13.7146 20.5978 14.0159 20.7953 14.3016C21.509 15.3377 22.219 16.3765 22.9253 17.4172C23.5279 18.3036 23.2257 19.2607 22.2291 19.6327C21.7799 19.7998 21.3308 19.9679 20.877 20.1204C20.6382 20.2003 20.5381 20.3363 20.5252 20.5953C20.494 21.2116 20.4674 21.8298 20.3121 22.4332C19.8547 24.2051 18.3676 25.4653 16.4792 25.6793C16.436 25.6839 16.3919 25.6894 16.2927 25.7004C16.9889 26.2359 17.7311 26.5317 18.555 26.5721C19.3091 26.6088 20.0669 26.5822 20.8219 26.5932C20.9716 26.595 21.0396 26.5445 21.0993 26.4095C21.4438 25.637 22.0555 25.2742 22.8932 25.2742C23.3286 25.2742 23.7639 25.2669 24.1984 25.277C25.2115 25.3008 25.9987 26.1027 26.0014 27.1048C26.0042 28.0987 25.2455 28.895 24.2416 28.9327C23.7502 28.951 23.2569 28.9455 22.7646 28.9354C21.9912 28.9189 21.4373 28.5405 21.1177 27.8479C21.0267 27.6513 20.9193 27.621 20.7328 27.6183C19.852 27.6027 18.9683 27.6862 18.0912 27.5604C17.0064 27.4052 16.064 26.9386 15.2695 26.1891C15.0949 26.0246 14.9912 26.0155 14.8313 26.1854C14.6247 26.4058 14.441 26.641 14.3647 26.9349C14.2187 27.4989 14.0928 28.0683 13.956 28.6342C13.9238 28.7683 13.9532 28.8326 14.1002 28.8757C15.0545 29.1568 15.6663 29.8043 16.0778 30.6916C16.6353 31.8931 17.2241 33.0789 17.7954 34.2739C17.9984 34.6982 17.9277 34.9076 17.5318 35.1097C17.4096 35.1584 17.2829 35.1345 17.1579 35.1345C13.1964 35.1364 9.23571 35.1354 5.27414 35.1354C4.93429 35.0895 4.74691 34.9104 4.74232 34.6275C4.73864 34.3611 4.95633 34.1085 5.24199 34.0562C5.41192 34.0249 5.5846 34.0369 5.75636 34.0369C9.09977 34.036 12.4432 34.0369 15.7866 34.0369C15.8895 34.0369 15.9923 34.0341 16.0961 34.0369C16.3184 34.0415 16.391 33.9588 16.2844 33.7448C15.7912 32.7629 15.3622 31.7489 14.8286 30.7862C14.5144 30.2186 14.0019 29.9219 13.3635 29.9192C10.123 29.9063 6.88247 29.9072 3.64285 29.9173C2.6536 29.9201 1.90685 30.6779 1.89215 31.6616C1.88296 32.3257 1.89766 32.9898 1.88664 33.6539C1.88205 33.9349 1.98859 34.0507 2.26874 34.0387C2.50848 34.0286 2.75005 34.0204 2.98886 34.0516C3.30943 34.0938 3.51609 34.3244 3.51885 34.6257C3.52069 34.8755 3.3728 35.1612 3.00448 35.1354C2.38999 35.1354 1.7755 35.1354 1.16101 35.1354C0.820238 35.0941 0.702668 34.9839 0.670519 34.6422C0.641127 34.3345 0.660415 34.024 0.659497 33.7145C0.65766 33.0504 0.689808 32.3845 0.652149 31.7222C0.590608 30.6512 1.31256 29.2542 2.78679 28.8032C3.11746 28.7021 3.2635 28.5285 3.34984 28.2043C3.73378 26.7769 4.1315 25.3541 4.32255 23.8845C4.37583 23.4758 4.42543 23.067 4.43829 22.6546C4.4438 22.4654 4.39052 22.3221 4.18753 22.2596C2.91814 21.8647 2.21731 20.9048 1.71763 19.7521C1.27215 18.7233 1.04895 17.6321 0.891882 16.5327C0.676949 15.0245 0.400475 13.5263 0.154311 12.0237C0.0597038 11.4487 0.0964445 10.8636 0 10.2895C0 10.1976 0 10.1058 0 10.0148C0.0496001 9.96892 0.0312296 9.9083 0.0358222 9.85227C0.0358222 9.80818 0.0358222 9.76409 0.0358222 9.72001C0.0229629 9.63458 0.0661334 9.54181 0 9.46466C0 9.16706 0 8.86854 0 8.57094C0.0560297 8.43316 0.0560297 8.2963 0 8.15852C0.000918519 7.95277 0.000918716 7.74611 0.000918716 7.54036Z" fill="#2F80ED"/>
<path d="M3.03635 35.1161C3.3413 35.0344 3.47632 34.8231 3.42305 34.5255C3.37161 34.2399 3.15944 34.1122 2.87378 34.1104C2.58812 34.1085 2.30154 34.1021 2.01588 34.1113C1.84963 34.1168 1.7688 34.0837 1.77155 33.8899C1.78349 33.1119 1.76145 32.333 1.78625 31.556C1.81564 30.643 2.58352 29.8714 3.49561 29.8007C3.65544 29.7887 3.81526 29.7869 3.976 29.7869C6.98599 29.786 9.99506 29.7988 13.005 29.7796C14.0264 29.7731 14.7172 30.1865 15.1388 31.1215C15.5833 32.1089 16.0747 33.0752 16.5478 34.0543C16.4302 34.1581 16.2998 34.1067 16.1831 34.1067C12.6927 34.1104 9.20237 34.1095 5.712 34.1095C5.60913 34.1095 5.50625 34.1104 5.40338 34.1104C5.10118 34.1095 4.88258 34.2454 4.83665 34.5467C4.7944 34.825 4.9285 35.0316 5.21508 35.1134C5.24356 35.1217 5.25366 35.1327 5.24723 35.1474C5.23988 35.163 5.23253 35.1713 5.22427 35.1713C4.49129 35.1713 3.75831 35.1713 3.02533 35.1713C3.00145 35.1538 2.99502 35.14 3.00696 35.1299C3.01523 35.1207 3.02533 35.1161 3.03635 35.1161Z" fill="#FEFEFE"/>
<path d="M5.22397 35.1704C5.21754 35.152 5.21479 35.1327 5.21387 35.1134C5.92296 35.1098 6.63114 35.1024 7.34024 35.1024C10.7378 35.1033 14.1345 35.107 17.5321 35.1098C17.5229 35.1291 17.5202 35.1493 17.5257 35.1704C13.4254 35.1704 9.32424 35.1704 5.22397 35.1704Z" fill="#777777"/>
<path d="M1.1003 35.1703C1.11224 35.1483 1.1104 35.1271 1.0957 35.1069C1.74234 35.1106 2.3899 35.1134 3.03653 35.117C3.04296 35.1372 3.03929 35.1556 3.02459 35.1712C2.38255 35.1703 1.74142 35.1703 1.1003 35.1703Z" fill="#797979"/>
<path d="M0.000976562 8.15851C0.109362 8.29629 0.102014 8.43314 0.000976562 8.57092C0.000976562 8.43314 0.000976562 8.29629 0.000976562 8.15851Z" fill="#1B1B1B"/>
<path d="M0.000976562 9.46472C0.103851 9.54004 0.0643543 9.64567 0.0597617 9.74395C0.0377173 9.77059 0.0184284 9.76875 0.000976562 9.73936C0.000976562 9.64751 0.000976562 9.55657 0.000976562 9.46472Z" fill="#454545"/>
<path d="M0.000976562 9.73926C0.021184 9.74018 0.0404728 9.74202 0.0597617 9.74385C0.0597617 9.78886 0.058843 9.83478 0.058843 9.87979C0.0377171 9.90735 0.0184284 9.90551 0.000976562 9.87612C0.000976562 9.83111 0.000976562 9.78518 0.000976562 9.73926Z" fill="#696969"/>
<path d="M0.000976562 9.87708C0.0202655 9.87799 0.0395541 9.87891 0.058843 9.88075C0.0671097 9.9377 0.0873174 9.99924 0.000976562 10.0149C0.000976562 9.96893 0.000976562 9.923 0.000976562 9.87708Z" fill="#8B8B8B"/>
<path d="M23.9906 22.12C24.1853 22.12 24.2836 22.12 24.3819 22.12C27.2908 22.12 30.1998 22.12 33.1096 22.12C33.8904 22.12 34.1577 21.8509 34.1577 21.0674C34.1577 19.3837 34.1586 17.7001 34.1577 16.0164C34.1568 15.3377 33.8536 15.0355 33.1703 15.0355C31.223 15.0346 29.2757 15.0336 27.3294 15.0355C26.6671 15.0364 26.3714 15.334 26.3659 16.0027C26.3622 16.484 26.3705 16.9653 26.3631 17.4457C26.3576 17.8581 26.1711 18.073 25.8405 18.0693C25.5098 18.0657 25.339 17.8562 25.3353 17.4337C25.3307 16.9184 25.3252 16.4022 25.3362 15.8879C25.361 14.7645 26.1335 14.0086 27.2623 14.0058C29.2666 14.0012 31.2708 14.0003 33.275 14.0058C34.3882 14.0086 35.1818 14.7985 35.1855 15.9062C35.191 17.6927 35.1919 19.4802 35.1855 21.2667C35.1818 22.346 34.4048 23.1432 33.331 23.1469C30.1015 23.157 26.8711 23.1524 23.6415 23.1506C23.1759 23.1506 22.8801 22.9421 22.746 22.5471C22.61 22.1466 22.712 21.8132 23.0849 21.5211C23.8684 20.9076 24.6565 20.2986 25.4474 19.6933C25.7698 19.4462 26.0609 19.4655 26.2557 19.73C26.443 19.9845 26.3723 20.2765 26.0536 20.5236C25.3959 21.0343 24.7346 21.5441 23.9906 22.12Z" fill="#2F80ED"/>
<path d="M30.273 18.0648C29.7247 18.0648 29.1763 18.0675 28.628 18.0638C28.2394 18.0611 28.03 17.8847 28.0236 17.5651C28.0171 17.2372 28.2413 17.036 28.639 17.0351C29.7476 17.0314 30.8554 17.0305 31.964 17.0351C32.3388 17.0369 32.5675 17.2362 32.5748 17.5421C32.5831 17.8581 32.3452 18.0611 31.953 18.0638C31.3927 18.0675 30.8324 18.0648 30.273 18.0648Z" fill="#2F80ED"/>
<path d="M30.2692 20.3932C29.7319 20.3932 29.1946 20.395 28.6581 20.3922C28.254 20.3904 28.0271 20.2058 28.0225 19.8843C28.0179 19.5564 28.2411 19.3635 28.6416 19.3635C29.7383 19.3617 30.836 19.3617 31.9327 19.3635C32.3331 19.3644 32.5692 19.5536 32.5738 19.8687C32.5793 20.1948 32.335 20.3913 31.9152 20.3932C31.3669 20.395 30.8185 20.3932 30.2692 20.3932Z" fill="#2F80ED"/>
<path d="M16.4975 10.3528C14.9516 10.3528 13.4048 10.3519 11.8589 10.3537C11.6853 10.3537 11.5319 10.3326 11.3721 10.238C11.0396 10.0405 10.6621 9.98908 10.2791 10.0084C10.0871 10.0185 10.0237 9.95876 10.0274 9.75945C10.0384 9.01545 10.0366 8.27053 10.0283 7.52561C10.0265 7.36762 10.0715 7.31894 10.2286 7.28863C10.6446 7.20872 10.7374 7.08196 10.7411 6.65577C10.7448 6.17447 10.7466 5.69316 10.7402 5.21277C10.7347 4.83434 10.5381 4.61941 10.2203 4.62584C9.91994 4.63135 9.72521 4.84353 9.71327 5.19992C9.70317 5.48558 9.70317 5.77307 9.71419 6.05873C9.7197 6.22407 9.66183 6.27642 9.49742 6.27458C8.79843 6.26723 8.10035 6.26815 7.40136 6.27367C7.25531 6.27458 7.20112 6.22866 7.20112 6.07802C7.20479 4.46326 7.20571 2.84759 7.2002 1.23283C7.19928 1.05923 7.28838 1.05831 7.41422 1.05923C8.11321 1.06199 8.81128 1.06658 9.51028 1.05647C9.68755 1.05372 9.71603 1.12444 9.71419 1.27784C9.70684 1.7472 9.70041 2.21748 9.71878 2.68685C9.73164 3.012 9.95668 3.21316 10.2442 3.20673C10.5308 3.2003 10.7227 2.98996 10.7411 2.66205C10.7448 2.6051 10.742 2.54723 10.742 2.49028C10.7448 1.90794 10.7448 1.90794 11.34 1.90794C14.5924 1.90794 17.8449 1.89876 21.0974 1.91253C23.1209 1.9208 24.8165 3.32797 25.2408 5.30738C25.7359 7.61287 24.0615 9.9753 21.7156 10.294C21.0184 10.3886 20.3203 10.3427 19.6232 10.3491C18.5816 10.3602 17.5391 10.3528 16.4975 10.3528Z" fill="#FEFEFE"/>
<path d="M10.9521 18.998C11.8808 18.6269 12.2785 18.0529 12.2794 17.0958C12.2822 15.3772 12.2803 13.6596 12.2794 11.941C12.2794 11.7628 12.2032 11.4763 12.2794 11.4294C12.4227 11.3412 12.6514 11.3844 12.8443 11.3844C14.9284 11.3826 17.0135 11.389 19.0976 11.3771C19.3695 11.3752 19.4411 11.4331 19.3906 11.7096C19.3171 12.1146 19.3015 12.527 19.3042 12.9413C19.3098 13.6256 19.5017 14.2447 19.8893 14.8077C20.6095 15.853 21.325 16.902 22.0405 17.9509C22.3152 18.3532 22.2619 18.5176 21.81 18.6848C21.3498 18.8556 20.8896 19.0247 20.4294 19.1955C19.8407 19.4132 19.5385 19.8329 19.5017 20.4631C19.4696 21.0335 19.4631 21.6057 19.3199 22.1669C18.9607 23.5649 17.673 24.6074 16.2272 24.6579C16.1473 24.6607 16.0591 24.6414 15.9884 24.6671C15.4437 24.8637 15.1856 24.5358 14.8935 24.1482C13.6535 22.5031 12.386 20.8791 11.1285 19.2469C11.0752 19.1762 11.0256 19.1009 10.9521 18.998Z" fill="#FEFEFE"/>
<path d="M6.17193 4.50924C6.17193 5.23028 6.17928 5.95223 6.16918 6.67327C6.16367 7.03057 6.31522 7.24918 6.66793 7.28776C6.85072 7.30797 6.88562 7.38053 6.88379 7.54678C6.87552 8.27976 6.87184 9.01274 6.88562 9.7448C6.89021 9.96157 6.81949 10.0185 6.61466 10.0158C6.43463 10.013 6.25001 10.0488 6.07273 10.0902C5.12758 10.3079 4.64535 10.8948 4.63709 11.8675C4.62606 13.0809 4.63433 14.2951 4.63433 15.5085C4.63433 16.0807 4.62239 16.6539 4.63801 17.2261C4.66464 18.2273 5.26995 18.8978 6.26287 19.0274C6.42085 19.0476 6.4879 19.0898 6.47505 19.2533C6.4631 19.4012 6.45943 19.5518 6.47505 19.6997C6.58251 20.7156 5.66399 21.5983 4.41664 21.1767C3.78195 20.9627 3.36218 20.5071 3.04162 19.9495C2.54562 19.0852 2.29762 18.1336 2.13596 17.1628C1.81172 15.2118 1.4783 13.2618 1.20826 11.3035C0.967603 9.55099 0.920758 7.79295 1.35705 6.05143C1.93297 3.75789 3.43934 2.50962 5.72002 2.1119C6.17285 2.03291 6.17285 2.03658 6.17285 2.48298C6.17193 3.1581 6.17193 3.83321 6.17193 4.50924Z" fill="#FEFEFE"/>
<path d="M8.62833 28.7554C7.31118 28.7554 5.99494 28.7508 4.67778 28.759C4.43529 28.7609 4.36548 28.7306 4.44356 28.4578C4.87251 26.9523 5.27206 25.4377 5.45852 23.878C5.51455 23.4123 5.54303 22.9439 5.56966 22.4754C5.57793 22.3322 5.61008 22.2623 5.75704 22.2072C6.96122 21.7572 7.49855 20.981 7.50131 19.7125C7.50315 19.0411 7.50315 19.0411 8.18469 19.0411C8.60813 19.0411 9.03248 19.0475 9.45592 19.0374C9.60839 19.0337 9.70484 19.0824 9.79945 19.2055C11.2902 21.1482 12.7856 23.0872 14.2846 25.0234C14.3819 25.1493 14.392 25.2191 14.2598 25.3256C13.7022 25.7766 13.3991 26.3764 13.2595 27.0726C13.1649 27.5429 13.0244 28.004 12.9426 28.4761C12.9013 28.7168 12.7966 28.76 12.5798 28.759C11.2617 28.7508 9.94457 28.7554 8.62833 28.7554Z" fill="#FEFEFE"/>
<path d="M11.2506 14.5055C11.2506 15.3753 11.2534 16.2461 11.2497 17.1159C11.2479 17.5669 11.0752 17.8516 10.7445 17.9664C10.5526 18.0335 10.4341 18.0372 10.4387 17.7579C10.4543 16.7163 10.446 15.6747 10.4451 14.6322C10.4442 13.7256 10.0097 13.2939 9.0958 13.2903C8.62644 13.2884 8.15707 13.2829 7.68771 13.2921C6.93544 13.3059 6.47159 13.7716 6.46883 14.522C6.46424 15.5866 6.46791 16.6511 6.467 17.7166C6.467 18.0353 6.40362 18.0739 6.11245 17.938C5.74779 17.7671 5.66329 17.453 5.66421 17.0856C5.66788 15.7344 5.66513 14.3833 5.66605 13.0331C5.66605 12.6556 5.66054 12.2771 5.66788 11.8996C5.67891 11.3127 5.95354 11.0362 6.53313 11.0344C7.81538 11.0307 9.09764 11.0307 10.3799 11.0344C10.9604 11.0362 11.2451 11.3145 11.2506 11.8959C11.2562 12.7649 11.2506 13.6356 11.2506 14.5055Z" fill="#FEFEFE"/>
<path d="M9.4148 16.2121C9.4148 16.7274 9.40837 17.2427 9.41848 17.758C9.42215 17.9389 9.38908 18.0225 9.18058 18.0152C8.70019 17.9996 8.21889 18.0005 7.7385 18.0152C7.53643 18.0207 7.49326 17.949 7.49418 17.7607C7.50244 16.7072 7.50244 15.6537 7.49418 14.601C7.49234 14.3934 7.55847 14.3145 7.76881 14.319C8.22624 14.3292 8.68458 14.3292 9.142 14.319C9.35051 14.3145 9.42215 14.3879 9.41756 14.5983C9.40654 15.1356 9.4148 15.6739 9.4148 16.2121Z" fill="#FEFEFE"/>
<path d="M23.46 27.9029C23.2203 27.9029 22.9805 27.9149 22.7417 27.9002C22.3054 27.8735 21.9968 27.5456 21.9913 27.1231C21.9858 26.7033 22.287 26.3396 22.7151 26.3176C23.2267 26.2909 23.7429 26.29 24.2545 26.3185C24.6835 26.3415 24.9792 26.707 24.9691 27.1305C24.9599 27.5567 24.6541 27.8754 24.2132 27.9011C23.9624 27.9149 23.7108 27.9039 23.46 27.9029Z" fill="#FEFEFE"/>
<path d="M9.00043 8.66102C9.00043 9.03761 8.994 9.4142 9.00319 9.79079C9.00778 9.95429 8.95451 9.99838 8.79101 10.0066C7.91107 10.0498 7.91107 10.0553 7.91107 9.19192C7.91107 8.64448 7.91934 8.09612 7.90648 7.54869C7.90188 7.35121 7.96618 7.30344 8.15723 7.29885C9.00044 7.2814 9.00043 7.27497 9.00043 8.11266C9.00043 8.29544 9.00043 8.47823 9.00043 8.66102Z" fill="#FDFDFD"/>
<path d="M16.8035 22.6583C15.7564 22.6528 14.9316 21.8839 14.8572 20.9131C14.8296 20.5576 15.0143 20.2967 15.3174 20.2618C15.6168 20.2279 15.8308 20.4318 15.885 20.8056C15.9971 21.5808 16.6869 21.8582 17.3253 21.3861C17.6284 21.162 17.9168 21.1767 18.1097 21.4274C18.2888 21.6598 18.241 21.9482 17.9783 22.1825C17.6229 22.5003 17.2003 22.6472 16.8035 22.6583Z" fill="#2F80ED"/>
</svg>
