<svg width="37" height="33" viewBox="0 0 37 33" fill="none" xmlns="http://www.w3.org/2000/svg">
<path d="M0.000991342 15.6867C0.102087 15.4532 0.258685 15.2667 0.451956 15.101C6.18961 10.1831 11.9253 5.26316 17.6609 0.343228C18.1942 -0.113744 18.5193 -0.113741 19.0465 0.339239C20.7007 1.75904 22.353 3.17985 24.0072 4.59866C24.0845 4.66551 24.1687 4.72337 24.2946 4.82115C24.2946 3.82938 24.2946 2.89649 24.2946 1.96358C24.2956 1.11849 24.5691 0.845102 25.4136 0.845102C26.477 0.845102 27.5395 0.843106 28.603 0.845102C29.3573 0.847097 29.6774 1.16438 29.6774 1.9117C29.6784 4.32926 29.6814 6.74582 29.6725 9.16338C29.6715 9.3789 29.7399 9.50861 29.8984 9.6443C32.0284 11.4652 34.1514 13.2951 36.2773 15.12C36.5112 15.3215 36.7045 15.546 36.6946 15.8753C36.6847 16.1886 36.5331 16.428 36.2506 16.5617C35.9394 16.7094 35.641 16.6505 35.3824 16.434C34.8412 15.98 34.306 15.5181 33.7698 15.0581C28.714 10.7249 23.6583 6.39162 18.6085 2.05139C18.4142 1.88476 18.3062 1.87678 18.1089 2.0474C12.5953 6.78474 7.07469 11.5141 1.55607 16.2454C1.3747 16.4011 1.20026 16.5707 0.956441 16.6196C0.553051 16.7014 0.29833 16.5448 0 16.0449C0.00099113 15.9272 0.000991342 15.8064 0.000991342 15.6867Z" fill="#2F80ED"/>
<path d="M5.77961 17.2104C5.44758 17.4988 5.18791 17.7273 4.92427 17.9508C4.46537 18.3409 4.00251 18.3499 3.69229 17.9787C3.38306 17.6085 3.45838 17.1366 3.90439 16.7515C6.13543 14.8278 8.36844 12.9061 10.6024 10.9854C12.9445 8.97098 15.2865 6.95551 17.6306 4.94304C18.2163 4.44017 18.5018 4.44217 19.0954 4.95302C23.6626 8.88018 28.2277 12.8103 32.7958 16.7365C33.0902 16.9899 33.2785 17.2773 33.1794 17.6764C33.0446 18.2192 32.4182 18.4287 31.9474 18.0785C31.6134 17.83 31.3081 17.5427 30.9781 17.2623C30.878 17.393 30.9256 17.5287 30.9246 17.6495C30.9216 22.3638 30.9216 27.0772 30.9216 31.7916C30.9216 31.9233 30.9226 32.057 30.9087 32.1877C30.8612 32.6307 30.5866 32.9021 30.1416 32.946C30.0236 32.958 29.9027 32.956 29.7838 32.956C22.163 32.956 14.5412 32.957 6.9204 32.955C6.76579 32.955 6.6072 32.958 6.45655 32.9301C6.1047 32.8652 5.88368 32.6437 5.81232 32.2925C5.77961 32.1299 5.7806 31.9583 5.7806 31.7906C5.77862 27.0892 5.77961 22.3868 5.77961 17.6854C5.77961 17.5567 5.77961 17.428 5.77961 17.2104Z" fill="#2F80ED"/>
<path d="M28.0932 8.08373C27.3419 7.44816 26.6521 6.86149 25.9593 6.2788C25.8582 6.19399 25.878 6.08823 25.878 5.98247C25.877 4.88893 25.88 3.79539 25.875 2.70185C25.874 2.53124 25.8949 2.44443 26.102 2.44942C26.6868 2.46439 27.2715 2.4614 27.8563 2.45042C28.0446 2.44743 28.0981 2.50929 28.0972 2.69687C28.0902 4.46389 28.0932 6.22891 28.0932 8.08373Z" fill="#FEFEFE"/>
<path d="M7.3663 23.577C7.3663 21.0996 7.36828 18.6231 7.36233 16.1457C7.36134 15.9362 7.41585 15.7955 7.57939 15.6548C11.1009 12.6436 14.6194 9.62738 18.131 6.60318C18.3213 6.43856 18.4233 6.46649 18.5968 6.61516C22.1094 9.63736 25.6269 12.6546 29.1484 15.6668C29.303 15.7985 29.3515 15.9332 29.3515 16.1288C29.3476 21.0946 29.3456 26.0614 29.3545 31.0272C29.3545 31.2946 29.295 31.3645 29.0245 31.3635C27.1611 31.3505 25.2978 31.3485 23.4345 31.3645C23.1322 31.3675 23.0926 31.2627 23.0935 30.9983C23.1015 28.0878 23.0995 25.1784 23.0985 22.2679C23.0985 21.4129 22.8577 21.1684 22.0192 21.1684C19.582 21.1684 17.1458 21.1684 14.7086 21.1684C13.8562 21.1684 13.6154 21.4069 13.6154 22.254C13.6154 25.1644 13.6104 28.0739 13.6223 30.9843C13.6233 31.2737 13.5708 31.3675 13.2605 31.3645C11.3972 31.3485 9.5339 31.3505 7.67057 31.3625C7.41585 31.3645 7.36035 31.2916 7.36035 31.0442C7.37026 28.5558 7.3663 26.0664 7.3663 23.577Z" fill="#FEFEFE"/>
<path d="M21.5159 27.083C21.5159 28.406 21.5079 29.729 21.5228 31.0511C21.5258 31.3085 21.4534 31.3643 21.2066 31.3624C19.3076 31.3514 17.4076 31.3514 15.5086 31.3624C15.2688 31.3634 15.1875 31.3185 15.1895 31.056C15.2004 28.386 15.1994 25.7171 15.1905 23.0471C15.1895 22.8066 15.2579 22.7537 15.4868 22.7547C17.3977 22.7637 19.3096 22.7657 21.2205 22.7527C21.4871 22.7507 21.5238 22.8415 21.5218 23.078C21.5099 24.413 21.5159 25.748 21.5159 27.083Z" fill="#FEFEFE"/>
</svg>
