<svg width="33" height="33" viewBox="0 0 33 33" fill="none" xmlns="http://www.w3.org/2000/svg">
<path d="M16.0589 0.00640869C16.2946 0.00640869 16.5297 0.00640869 16.7655 0.00640869C17.244 0.0494454 17.6224 0.285183 17.9808 0.590937C18.8434 1.32706 19.7337 2.03042 20.5951 2.76782C20.8064 2.94896 21.0415 2.99521 21.3075 2.99457C22.9981 2.99072 24.6887 2.992 26.3794 2.99264C28.1509 2.99393 29.2513 4.08912 29.2525 5.85234C29.2532 7.08306 29.2583 8.31378 29.2487 9.54386C29.2468 9.81493 29.3328 10.0108 29.5429 10.1798C30.0099 10.5549 30.4646 10.9454 30.9258 11.3276C31.6067 11.8916 31.9979 12.5841 31.9549 13.5C31.9266 14.1083 31.9478 14.7198 31.9497 15.3294C31.9639 20.5503 32.0525 25.7706 32.014 30.9909C32.0127 31.2048 32.0165 31.4187 31.9774 31.6307C31.8431 32.3572 31.4705 32.7426 30.7633 32.8794C21.1957 32.8794 11.6287 32.8794 2.06105 32.8794C1.27482 32.688 0.8785 32.1793 0.876573 31.3249C0.870792 29.1314 0.874644 26.9378 0.874644 24.7442C0.874644 21.0848 0.891347 17.4247 0.864368 13.7653C0.85666 12.6881 1.2517 11.8601 2.07903 11.2088C2.47407 10.8979 2.8492 10.5613 3.24681 10.2536C3.52301 10.0397 3.64698 9.78923 3.64249 9.43145C3.62643 8.17953 3.63478 6.92761 3.6367 5.67569C3.63863 4.14885 4.78649 2.99842 6.3204 2.99393C8.04315 2.98879 9.76655 2.98751 11.4893 2.99714C11.8188 2.99907 12.0803 2.90786 12.334 2.69203C13.1652 1.98481 14.0118 1.29558 14.8442 0.590295C15.2027 0.286468 15.581 0.0494454 16.0589 0.00640869Z" fill="#2F80ED"/>
<path d="M3.72328 11.2203C3.72328 11.9083 3.72136 12.5076 3.72392 13.1063C3.72521 13.4923 3.89286 13.6933 4.20246 13.6921C4.50822 13.6908 4.6855 13.482 4.6855 13.103C4.68743 10.6853 4.71698 8.26622 4.6733 5.8491C4.6521 4.69931 5.49035 4.03449 6.47891 4.03835C13.1233 4.0634 19.7676 4.05119 26.412 4.05119C27.5682 4.05119 28.1913 4.67555 28.1913 5.83625C28.1919 8.23282 28.1913 10.6294 28.1926 13.026C28.1926 13.1737 28.1701 13.3259 28.2594 13.4621C28.3853 13.6555 28.5651 13.7312 28.7835 13.6792C29.0353 13.6188 29.1516 13.4351 29.1535 13.1833C29.1573 12.5949 29.1548 12.0066 29.1554 11.4182C29.1554 11.3784 29.1618 11.3385 29.1708 11.2345C29.7046 11.7535 30.3425 12.0817 30.7362 12.6874C30.8512 12.8641 30.8261 12.9701 30.6546 13.1043C26.1634 16.6282 21.6767 20.1585 17.1886 23.6875C16.642 24.1172 16.229 24.1147 15.6888 23.6901C11.2181 20.1739 6.7487 16.6565 2.27224 13.1486C2.03842 12.9656 2.01916 12.8255 2.18552 12.6065C2.59662 12.0637 3.17986 11.7201 3.72328 11.2203Z" fill="#FEFEFE"/>
<path d="M30.1519 31.9037C20.9761 31.9037 11.8324 31.9037 2.63086 31.9037C3.41644 31.2048 4.16219 30.5394 4.90988 29.8758C7.51713 27.5596 10.1263 25.2459 12.7271 22.9225C12.8987 22.7696 12.9899 22.7645 13.1646 22.909C13.8076 23.4396 14.4672 23.9509 15.1205 24.4693C15.9594 25.1354 16.8966 25.1418 17.7335 24.4828C18.3971 23.9605 19.0593 23.4357 19.7171 22.9058C19.8494 22.7992 19.9361 22.7536 20.0916 22.893C23.424 25.8747 26.7623 28.8494 30.0992 31.8266C30.114 31.8395 30.1217 31.8587 30.1519 31.9037Z" fill="#FEFEFE"/>
<path d="M30.9114 14.1823C30.9114 19.8625 30.9114 25.5362 30.9114 31.2556C30.7464 31.1098 30.5973 30.9801 30.4496 30.8484C27.2797 28.0227 24.1123 25.1945 20.9353 22.3759C20.7162 22.1813 20.7233 22.1049 20.95 21.9276C24.1772 19.4077 27.3959 16.8769 30.6185 14.3512C30.6988 14.2889 30.7611 14.1912 30.9114 14.1823Z" fill="#FEFEFE"/>
<path d="M1.94922 31.219C1.94922 25.5022 1.94922 19.8444 1.94922 14.1045C5.38252 16.7991 8.76508 19.4539 12.1753 22.1305C8.76765 25.1592 5.37546 28.1743 1.94922 31.219Z" fill="#FEFEFE"/>
<path d="M19.3287 3.08392C17.3561 3.08392 15.476 3.08392 13.5997 3.08392C13.5586 3.02739 13.608 3.00555 13.6357 2.98243C14.3332 2.40047 15.0283 1.81594 15.731 1.24105C16.1459 0.901249 16.6013 0.861424 16.9951 1.17167C17.764 1.7774 18.511 2.41075 19.3287 3.08392Z" fill="#FEFEFE"/>
<path d="M12.6588 10.6725C13.1721 10.6725 13.6859 10.6571 14.1985 10.6789C14.4542 10.6898 14.5685 10.6172 14.6462 10.3648C14.9494 9.37687 15.2777 8.39602 15.5995 7.41389C15.7517 6.94947 16.0125 6.73686 16.4152 6.73429C16.8218 6.73108 17.0916 6.94112 17.2426 7.40104C17.5618 8.3729 17.8823 9.34476 18.1849 10.3218C18.2645 10.5787 18.3635 10.6905 18.6628 10.6821C19.6565 10.6564 20.6521 10.6718 21.6465 10.6725C22.2014 10.6725 22.5181 10.8543 22.6485 11.2448C22.784 11.6501 22.6344 11.979 22.1623 12.3207C21.3407 12.9162 20.5256 13.5206 19.6944 14.1026C19.5036 14.2362 19.4985 14.3492 19.564 14.5451C19.8922 15.5253 20.2063 16.5107 20.5249 17.4941C20.681 17.9765 20.602 18.3227 20.2847 18.5623C19.9468 18.8173 19.6051 18.7974 19.1689 18.4827C18.3294 17.8757 17.4899 17.268 16.6587 16.6494C16.4878 16.5223 16.3767 16.5094 16.1949 16.6456C15.3406 17.286 14.4747 17.9123 13.6063 18.5334C13.034 18.9432 12.3306 18.6645 12.2362 18.0041C12.2124 17.8397 12.2587 17.6868 12.3088 17.5346C12.6357 16.5312 12.9582 15.5266 13.2922 14.5259C13.3545 14.3383 13.3352 14.2342 13.1592 14.1103C12.3036 13.5071 11.4622 12.8847 10.6162 12.268C10.2045 11.9681 10.0696 11.6418 10.1961 11.2609C10.3265 10.8665 10.6233 10.6763 11.1204 10.6738C11.6317 10.6712 12.1456 10.6725 12.6588 10.6725Z" fill="#2F80ED"/>
<path d="M11.4835 11.636C12.4747 11.636 13.4658 11.6367 14.4569 11.636C15.0723 11.6354 15.2887 11.4754 15.4814 10.8826C15.7814 9.95952 16.0814 9.03712 16.382 8.11408C16.3884 8.0948 16.4006 8.07746 16.4308 8.02094C16.6126 8.57463 16.7854 9.09878 16.9569 9.62421C17.1059 10.0803 17.2511 10.5376 17.4033 10.993C17.5549 11.4452 17.8099 11.6335 18.282 11.6347C19.3059 11.6379 20.3298 11.636 21.4346 11.636C21.2914 11.7504 21.2079 11.8223 21.1199 11.8865C20.4024 12.4088 19.6836 12.9284 18.9668 13.4506C18.4914 13.7968 18.4009 14.0795 18.5827 14.6409C18.8852 15.5742 19.189 16.5069 19.4909 17.4402C19.4967 17.4588 19.4916 17.4807 19.4916 17.525C18.6752 16.9327 17.8722 16.3489 17.068 15.7669C16.5535 15.3943 16.2901 15.3976 15.7686 15.7746C15.0414 16.3013 14.315 16.8287 13.5878 17.3548C13.5223 17.4023 13.4529 17.4453 13.3245 17.5308C13.5936 16.6951 13.839 15.9256 14.0889 15.158C14.5012 13.8913 14.5012 13.8926 13.415 13.1089C12.765 12.64 12.1175 12.1685 11.4688 11.6983C11.4739 11.6778 11.4784 11.6566 11.4835 11.636Z" fill="#FEFEFE"/>
</svg>
