<svg width="114" height="80" viewBox="0 0 114 80" fill="none" xmlns="http://www.w3.org/2000/svg">
<path d="M61.1897 43.2525L43.6306 73.6584L26.0716 43.2525H61.1897ZM65.8937 40.5349H21.3486L43.6306 79.0366L65.8937 40.5349Z" fill="#2F80ED"/>
<path d="M91.7186 5.43506L109.278 35.841H74.1595L91.7186 5.43506ZM91.7186 0L69.4365 38.5015H114.001L91.7186 0Z" fill="#2F80ED"/>
<path d="M0 0L18.6827 34.0547L39.0983 0.855121L0 0Z" fill="#2F80ED"/>
<path d="M43.6305 2.98389L63.2273 36.8485H23.9956L43.6305 2.98389Z" fill="#2F80ED"/>
<path d="M68.2751 44.241L87.891 79.037H47.7261L67.6656 44.241H68.2751Z" fill="#2F80ED"/>
<path d="M72.5215 42.1316L91.7183 76.3953L111.182 42.1316H72.5215Z" fill="#2F80ED"/>
</svg>
