<svg width="29" height="20" viewBox="0 0 29 20" fill="none" xmlns="http://www.w3.org/2000/svg">
<path d="M15.4839 10.5868L11.0407 18.0292L6.59747 10.5868H15.4839ZM16.6742 9.92163H5.40234L11.0407 19.3456L16.6742 9.92163Z" fill="white"/>
<path d="M23.2096 1.33032L27.6528 8.77268H18.7664L23.2096 1.33032ZM23.2096 0L17.5713 9.42389H28.8479L23.2096 0Z" fill="white"/>
<path d="M0 0L4.72754 8.33546L9.89359 0.209305L0 0Z" fill="white"/>
<path d="M11.0407 0.730469L15.9996 9.01941H6.07227L11.0407 0.730469Z" fill="white"/>
<path d="M17.2769 10.8286L22.2406 19.3455H12.0771L17.1227 10.8286H17.2769Z" fill="white"/>
<path d="M18.3516 10.3125L23.2092 18.6991L28.1343 10.3125H18.3516Z" fill="white"/>
</svg>
