<svg width="30" height="34" viewBox="0 0 30 34" fill="none" xmlns="http://www.w3.org/2000/svg">
<path d="M21.5913 33.9974C21.3402 33.8101 21.2816 33.5564 21.2825 33.2529C21.2905 30.9077 21.287 28.5616 21.2887 26.2164C21.2887 26.085 21.2887 25.9466 21.3269 25.8233C21.3961 25.5979 21.5674 25.4861 21.8052 25.4941C22.043 25.5021 22.2045 25.6254 22.2586 25.8561C22.2888 25.983 22.2852 26.1196 22.2852 26.2519C22.287 28.3761 22.295 30.5004 22.2772 32.6247C22.2746 32.9583 22.3722 33.0213 22.6801 33.0107C23.3651 32.9858 24.0528 32.9805 24.7369 33.0124C25.075 33.0284 25.1184 32.9148 25.1176 32.6122C25.1069 28.6734 25.1105 24.7345 25.1105 20.7957C25.1105 20.076 25.1602 20.0175 25.8913 19.9021C25.1841 19.1497 24.4884 18.4114 23.7963 17.6687C23.7049 17.5711 23.6561 17.6137 23.5869 17.6882C22.901 18.4212 22.2133 19.1514 21.5248 19.8835C21.6011 19.9704 21.6827 19.9305 21.7528 19.9394C22.1104 19.982 22.279 20.139 22.2808 20.4958C22.2888 21.6466 22.2888 22.7975 22.2808 23.9475C22.2781 24.2776 22.058 24.4958 21.7785 24.4905C21.499 24.4852 21.2923 24.2669 21.2887 23.9315C21.2799 23.0468 21.2736 22.1613 21.2923 21.2766C21.2985 20.9935 21.2089 20.9084 20.9391 20.9376C20.7421 20.9589 20.5416 20.9412 20.342 20.9403C20.1095 20.9403 19.9409 20.8454 19.8477 20.6235C19.7572 20.4088 19.8291 20.2322 19.9719 20.0778C20.31 19.7122 20.6534 19.352 20.9941 18.9891C21.7368 18.1993 22.4795 17.4096 23.2231 16.6208C23.5754 16.2463 23.815 16.2428 24.1646 16.6137C25.2347 17.7486 26.2995 18.8879 27.3732 20.0201C27.5506 20.2074 27.6394 20.4061 27.5391 20.6475C27.4415 20.8826 27.2347 20.9403 26.9943 20.9439C26.7094 20.9483 26.3314 20.8187 26.1637 20.9935C25.9836 21.1817 26.1087 21.5605 26.1087 21.8551C26.1052 25.6724 26.1034 29.4897 26.1114 33.3061C26.1123 33.6114 26.0377 33.843 25.7724 34C24.3802 33.9974 22.9853 33.9974 21.5913 33.9974Z" fill="#2F80ED"/>
<path d="M12.7606 33.9973C12.5103 33.8101 12.4518 33.5563 12.4526 33.2519C12.4606 30.3202 12.4535 27.3885 12.4633 24.4567C12.4642 24.1914 12.4118 24.0725 12.1252 24.1071C11.9291 24.1311 11.7277 24.108 11.5281 24.1124C11.2947 24.1187 11.1234 24.029 11.024 23.8116C10.9211 23.5863 11.0001 23.4017 11.1527 23.2375C11.4464 22.9217 11.7437 22.6084 12.0392 22.2943C12.8271 21.4567 13.6142 20.6173 14.4048 19.7805C14.7464 19.4185 14.9869 19.4158 15.3249 19.7734C16.3951 20.9083 17.4599 22.0476 18.5326 23.1799C18.7066 23.3635 18.813 23.5596 18.7154 23.8045C18.6098 24.0707 18.3791 24.1142 18.1156 24.1151C17.8441 24.116 17.4723 23.9864 17.3259 24.1692C17.1892 24.3405 17.2779 24.6963 17.2779 24.9714C17.2762 27.7487 17.2735 30.5252 17.2824 33.3025C17.2833 33.6078 17.2087 33.8394 16.9434 33.9964C15.5494 33.9973 14.1545 33.9973 12.7606 33.9973Z" fill="#2F80ED"/>
<path d="M3.93112 33.9965C3.68092 33.8084 3.61526 33.5555 3.62413 33.2512C3.6401 32.6656 3.62591 32.0782 3.63034 31.4918C3.633 31.0836 3.79892 30.8769 4.11389 30.8689C4.44839 30.86 4.62318 31.0685 4.6285 31.4935C4.63294 31.9141 4.6427 32.3347 4.62406 32.7543C4.61431 32.9673 4.68795 33.0081 4.88403 33.0045C5.64707 32.993 6.41099 32.9886 7.17403 33.0063C7.41625 33.0116 7.45795 32.9344 7.45617 32.7117C7.44641 30.9301 7.45085 29.1485 7.45085 27.3678C7.45085 26.682 7.52715 26.5977 8.25293 26.5302C7.77381 26.021 7.3151 25.533 6.85728 25.045C6.63014 24.8028 6.40389 24.5597 6.17498 24.3201C6.11287 24.2553 6.0623 24.1497 5.94518 24.2757C5.25401 25.0193 4.55752 25.7566 3.8069 26.556C3.9604 26.556 4.04114 26.5524 4.12188 26.5569C4.4404 26.5728 4.61874 26.7503 4.62406 27.0599C4.6356 27.823 4.6356 28.5869 4.62406 29.3499C4.61963 29.6578 4.39515 29.8663 4.12632 29.8637C3.85837 29.861 3.64631 29.6507 3.63655 29.3402C3.62324 28.8761 3.60284 28.4086 3.6401 27.9472C3.66849 27.5932 3.53984 27.5098 3.22221 27.5497C3.03677 27.5728 2.84601 27.5586 2.6588 27.5515C2.44142 27.5435 2.28438 27.4423 2.19388 27.2374C2.10693 27.0395 2.15218 26.8621 2.28882 26.7157C3.41563 25.5126 4.54421 24.3112 5.67901 23.1161C5.89638 22.8872 6.19184 22.889 6.41277 23.1214C7.53958 24.3095 8.6584 25.5046 9.77989 26.6979C9.93161 26.8594 9.96621 27.0537 9.88192 27.2507C9.79675 27.4494 9.62728 27.5506 9.40724 27.5524C9.17478 27.5541 8.94143 27.5701 8.71075 27.5488C8.48273 27.5275 8.44369 27.618 8.44457 27.8256C8.45256 29.6516 8.44369 31.4767 8.45433 33.3026C8.45611 33.6079 8.38069 33.8394 8.11452 33.9965C6.71887 33.9965 5.32499 33.9965 3.93112 33.9965Z" fill="#2F80ED"/>
<path d="M23.9414 9.08998C23.9219 14.1069 19.8641 18.1567 14.8631 18.1496C9.8435 18.1425 5.77421 14.059 5.79107 9.04651C5.80793 4.03575 9.91449 -0.0308798 14.9244 0.000176706C19.912 0.0312333 23.9609 4.11295 23.9414 9.08998Z" fill="#2F80ED"/>
<path d="M1.95646 8.75916C2.41961 8.75916 2.88364 8.75561 3.34678 8.76004C3.69902 8.76359 3.92527 8.96943 3.91818 9.264C3.91196 9.54615 3.69104 9.75199 3.36098 9.75465C2.42316 9.76086 1.48444 9.76086 0.546617 9.75465C0.211235 9.75199 0.00450508 9.55236 6.8816e-05 9.26223C-0.00436745 8.95612 0.205912 8.76359 0.565249 8.76004C1.02928 8.75561 1.49331 8.75916 1.95646 8.75916Z" fill="#2F80ED"/>
<path d="M27.5487 8.75995C28.0118 8.75995 28.4758 8.7564 28.939 8.76084C29.2974 8.76439 29.5077 8.95692 29.5042 9.26391C29.5006 9.55404 29.2921 9.75367 28.9567 9.75633C28.0189 9.76255 27.0802 9.76255 26.1424 9.75633C25.8123 9.75367 25.5923 9.54694 25.5861 9.2648C25.5799 8.97023 25.8061 8.76527 26.1583 8.76172C26.6215 8.7564 27.0855 8.75995 27.5487 8.75995Z" fill="#2F80ED"/>
<path d="M3.28316 3.9751C3.68065 4.1144 4.14823 4.25104 4.55992 4.50479C4.77109 4.63433 4.79415 4.87744 4.68414 5.09659C4.575 5.31574 4.37182 5.43375 4.13493 5.35567C3.73921 5.22524 3.34882 5.07086 2.96996 4.89696C2.72774 4.78605 2.66209 4.55448 2.74017 4.30605C2.81026 4.08335 2.98238 3.97422 3.28316 3.9751Z" fill="#2F80ED"/>
<path d="M26.7909 4.45277C26.7926 4.67369 26.6942 4.83695 26.491 4.92124C26.1352 5.06763 25.7785 5.21226 25.4165 5.34179C25.145 5.43851 24.9383 5.32316 24.8114 5.08094C24.6881 4.84582 24.783 4.5548 25.0403 4.43768C25.4103 4.26999 25.7874 4.11295 26.1742 3.99228C26.4954 3.8938 26.7829 4.13069 26.7909 4.45277Z" fill="#2F80ED"/>
<path d="M3.25703 14.5461C2.98287 14.5301 2.81784 14.4263 2.74597 14.2214C2.67056 14.0075 2.6954 13.776 2.90302 13.6624C3.31559 13.4344 3.75567 13.2525 4.21704 13.1513C4.44772 13.1008 4.62517 13.2472 4.7068 13.461C4.78222 13.6597 4.76092 13.8789 4.57283 13.9987C4.15404 14.2666 3.67049 14.3882 3.25703 14.5461Z" fill="#2F80ED"/>
<path d="M26.249 14.5505C25.8329 14.3819 25.3333 14.2683 24.9155 13.9782C24.7238 13.8451 24.7194 13.6136 24.825 13.4077C24.9403 13.1841 25.1479 13.083 25.3795 13.1593C25.7752 13.2897 26.1647 13.4459 26.5436 13.6198C26.7725 13.7245 26.8328 13.9463 26.7698 14.1832C26.7095 14.4121 26.5391 14.5203 26.249 14.5505Z" fill="#2F80ED"/>
<path d="M17.0801 23.0974C16.3773 23.148 16.2806 23.2536 16.2797 23.912C16.2797 26.8322 16.2753 29.7524 16.2868 32.6717C16.2877 32.953 16.215 33.016 15.9434 33.008C15.2141 32.9876 14.4829 32.9867 13.7544 33.0089C13.4926 33.0169 13.45 32.9326 13.4509 32.6948C13.4589 29.764 13.4563 26.8322 13.4563 23.9014C13.4563 23.2554 13.3489 23.1392 12.7224 23.1045C12.6798 23.0052 12.7775 22.975 12.8209 22.9289C13.4474 22.258 14.0774 21.5908 14.7047 20.9208C14.7988 20.8197 14.8636 20.7247 15.01 20.8836C15.6817 21.6147 16.3658 22.3352 17.0801 23.0974Z" fill="#FEFEFE"/>
<path d="M22.9418 9.08276C22.9347 13.5469 19.3189 17.1583 14.8618 17.1521C10.4048 17.1459 6.78356 13.523 6.78711 9.07211C6.78977 4.62215 10.4252 0.992973 14.8734 0.998297C19.3286 1.00273 22.9489 4.62925 22.9418 9.08276Z" fill="#FEFEFE"/>
<path d="M21.437 9.07059C21.4094 12.5951 18.7448 15.2712 15.5735 15.6031C12.0366 15.974 8.954 13.5223 8.39232 10.146C8.15274 8.70589 8.38699 7.32964 9.05338 6.02882C9.17761 5.78658 9.3604 5.65082 9.64168 5.7076C9.87593 5.75463 9.99839 5.91701 10.0312 6.14506C10.0569 6.32164 9.94958 6.46183 9.88037 6.61002C9.02144 8.46276 9.08799 10.28 10.1554 12.0218C11.3826 14.0228 13.7509 15.0139 16.0234 14.5268C18.2967 14.0405 20.0438 12.1709 20.3828 9.86386C20.7156 7.59673 19.5878 5.33848 17.554 4.19914C15.585 3.09708 13.0473 3.33843 11.3134 4.79454C11.2708 4.83003 11.2309 4.86819 11.1883 4.9028C10.9079 5.12995 10.6186 5.13173 10.4225 4.90812C10.2247 4.68274 10.261 4.39081 10.5308 4.15478C11.9558 2.91429 13.6222 2.36326 15.4936 2.54427C18.3952 2.82555 20.6792 4.90102 21.2994 7.75024C21.3935 8.18592 21.4201 8.62781 21.437 9.07059Z" fill="#2F80ED"/>
<path d="M15.8377 10.4905C15.843 10.109 15.6603 9.83484 15.2512 9.70708C14.9371 9.60859 14.6035 9.57576 14.2832 9.49591C13.4847 9.29539 12.9497 8.69472 12.8974 7.95653C12.8388 7.13316 13.2815 6.3994 14.0463 6.09241C14.2105 6.02676 14.2593 5.94513 14.2495 5.77921C14.2398 5.60354 14.2407 5.42342 14.2717 5.2513C14.3196 4.98689 14.5077 4.8476 14.7686 4.86002C15.0268 4.87244 15.2548 5.03215 15.2211 5.29122C15.1492 5.836 15.3701 6.12347 15.8626 6.31068C16.1163 6.40739 16.2929 6.65138 16.4251 6.9007C16.5803 7.19349 16.5209 7.47741 16.276 7.62558C16.0249 7.77819 15.757 7.70987 15.5733 7.41442C15.3364 7.03379 14.9877 6.93175 14.576 6.97789C14.1998 7.02048 13.939 7.31504 13.8955 7.72141C13.8582 8.06655 14.041 8.37354 14.3986 8.48356C14.6923 8.57406 15.0028 8.60511 15.3018 8.68053C16.2751 8.92718 16.7977 9.52519 16.8341 10.4213C16.8714 11.3378 16.3594 12.0494 15.4313 12.344C15.2832 12.391 15.237 12.454 15.2433 12.596C15.2495 12.761 15.2503 12.9287 15.2335 13.0928C15.2069 13.3626 15.0356 13.5169 14.7774 13.5329C14.5175 13.5498 14.3383 13.4114 14.2699 13.1505C14.1528 12.7033 13.876 12.3191 13.498 12.0876C13.1378 11.8658 12.8778 11.5561 12.7172 11.1693C12.5895 10.8632 12.6942 10.5926 12.9639 10.4719C13.2292 10.3539 13.4758 10.4648 13.6302 10.7736C13.9372 11.3875 14.844 11.6422 15.4331 11.2802C15.6842 11.1258 15.8324 10.8357 15.8377 10.4905Z" fill="#2F80ED"/>
</svg>
