<svg width="50" height="24" viewBox="0 0 50 24" fill="none" xmlns="http://www.w3.org/2000/svg">
<path d="M38.4158 21.4858H12.6846L23.1945 6.09302H49.107C50.1218 6.09302 50.013 6.94817 49.8318 7.37575C47.1137 11.2774 41.5688 19.241 41.1339 19.8824C40.699 20.5237 39.6843 21.4858 38.4158 21.4858Z" fill="#FF9800"/>
<path d="M13.4092 21.4858L23.6603 6.09302H26.456L16.2049 21.4858H13.4092Z" fill="black" fill-opacity="0.2"/>
<path d="M0 4.81024H5.07377L12.322 16.1945L20.1139 4.81024H24.644L12.322 23.2495L0 4.81024Z" fill="#FFDC9C"/>
<path d="M17.758 3.84814L12.5864 11.8652L7.24805 3.84814H17.758Z" fill="#FFDC9C"/>
<path d="M11.1445 2.38643H13.5002C14.3458 1.74507 16.0371 0.430283 16.0371 0.30201C16.0371 0.141669 16.9431 0.141652 17.6679 0.141652C18.2478 0.141652 18.876 0.889921 19.1176 1.26406V2.86747C19.1176 3.34851 18.2116 3.98985 18.0303 4.31054C17.8491 4.63122 16.9431 5.43292 16.3995 5.43292C15.9646 5.43292 15.0102 5.32603 14.5874 5.27258L13.5002 3.98985H10.9633C10.7821 3.98985 9.69487 5.11224 9.51366 5.27258C9.33245 5.43292 8.42642 5.43292 7.88281 5.43292C7.33919 5.43292 6.61436 4.31054 5.88954 3.66917C5.16471 3.02781 5.52713 1.90542 5.52713 1.4244C5.52713 1.03958 6.25195 0.408893 6.61436 0.141652C6.67477 0.0347581 7.12174 -0.114894 8.42642 0.141652C9.44118 1.03956 10.6613 2.0123 11.1445 2.38643Z" fill="#FF9B00"/>
</svg>
